<?xml version="1.0" encoding="iso-8859-1"?>
<!-- Generator: Adobe Illustrator 19.0.0, SVG Export Plug-In . SVG Version: 6.00 Build 0)  -->
<svg version="1.1" id="Capa_1" xmlns="http://www.w3.org/2000/svg" xmlns:xlink="http://www.w3.org/1999/xlink" x="0px" y="0px"
	 viewBox="0 0 477.867 477.867" style="enable-background:new 0 0 477.867 477.867;" xml:space="preserve" fill="white">
<g>
	<g>
		<path d="M119.467,0h-102.4C7.641,0,0,7.641,0,17.067v102.4c0,9.426,7.641,17.067,17.067,17.067h102.4
			c9.426,0,17.067-7.641,17.067-17.067v-102.4C136.533,7.641,128.892,0,119.467,0z"/>
	</g>
</g>
<g>
	<g>
		<path d="M290.133,0h-102.4c-9.426,0-17.067,7.641-17.067,17.067v102.4c0,9.426,7.641,17.067,17.067,17.067h102.4
			c9.426,0,17.067-7.641,17.067-17.067v-102.4C307.2,7.641,299.559,0,290.133,0z"/>
	</g>
</g>
<g>
	<g>
		<path d="M460.8,0H358.4c-9.426,0-17.067,7.641-17.067,17.067v102.4c0,9.426,7.641,17.067,17.067,17.067h102.4
			c9.426,0,17.067-7.641,17.067-17.067v-102.4C477.867,7.641,470.226,0,460.8,0z"/>
	</g>
</g>
<g>
	<g>
		<path d="M119.467,170.667h-102.4C7.641,170.667,0,178.308,0,187.733v102.4c0,9.426,7.641,17.067,17.067,17.067h102.4
			c9.426,0,17.067-7.641,17.067-17.067v-102.4C136.533,178.308,128.892,170.667,119.467,170.667z"/>
	</g>
</g>
<g>
	<g>
		<path d="M290.133,170.667h-102.4c-9.426,0-17.067,7.641-17.067,17.067v102.4c0,9.426,7.641,17.067,17.067,17.067h102.4
			c9.426,0,17.067-7.641,17.067-17.067v-102.4C307.2,178.308,299.559,170.667,290.133,170.667z"/>
	</g>
</g>
<g>
	<g>
		<path d="M460.8,170.667H358.4c-9.426,0-17.067,7.641-17.067,17.067v102.4c0,9.426,7.641,17.067,17.067,17.067h102.4
			c9.426,0,17.067-7.641,17.067-17.067v-102.4C477.867,178.308,470.226,170.667,460.8,170.667z"/>
	</g>
</g>
<g>
	<g>
		<path d="M119.467,341.333h-102.4C7.641,341.333,0,348.974,0,358.4v102.4c0,9.426,7.641,17.067,17.067,17.067h102.4
			c9.426,0,17.067-7.641,17.067-17.067V358.4C136.533,348.974,128.892,341.333,119.467,341.333z"/>
	</g>
</g>
<g>
	<g>
		<path d="M290.133,341.333h-102.4c-9.426,0-17.067,7.641-17.067,17.067v102.4c0,9.426,7.641,17.067,17.067,17.067h102.4
			c9.426,0,17.067-7.641,17.067-17.067V358.4C307.2,348.974,299.559,341.333,290.133,341.333z"/>
	</g>
</g>
<g>
	<g>
		<path d="M460.8,341.333H358.4c-9.426,0-17.067,7.641-17.067,17.067v102.4c0,9.426,7.641,17.067,17.067,17.067h102.4
			c9.426,0,17.067-7.641,17.067-17.067V358.4C477.867,348.974,470.226,341.333,460.8,341.333z"/>
	</g>
</g>
<g>
</g>
<g>
</g>
<g>
</g>
<g>
</g>
<g>
</g>
<g>
</g>
<g>
</g>
<g>
</g>
<g>
</g>
<g>
</g>
<g>
</g>
<g>
</g>
<g>
</g>
<g>
</g>
<g>
</g>
</svg>
