<?xml version="1.0" encoding="utf-8"?>
<!-- Svg Vector Icons : http://www.onlinewebfonts.com/icon -->
<!DOCTYPE svg PUBLIC "-//W3C//DTD SVG 1.1//EN" "http://www.w3.org/Graphics/SVG/1.1/DTD/svg11.dtd">
<svg version="1.1" xmlns="http://www.w3.org/2000/svg" xmlns:xlink="http://www.w3.org/1999/xlink" x="0px" y="0px" viewBox="0 0 1000 1000" enable-background="new 0 0 1000 1000" xml:space="preserve">
<metadata> Svg Vector Icons : http://www.onlinewebfonts.com/icon </metadata>
<g><path d="M500,269.5c-71.5,0-129.7-58.2-129.7-129.7C370.3,68.2,428.5,10,500,10c71.5,0,129.7,58.2,129.7,129.8C629.7,211.3,571.5,269.5,500,269.5z M500,42.7c-53.5,0-97,43.6-97,97.1c0,53.5,43.5,97.1,97,97.1c53.5,0,97.1-43.6,97.1-97.1C597.1,86.3,553.5,42.7,500,42.7z"/><path d="M500,631.3c-71.5,0-129.7-58.2-129.7-129.7c0-71.6,58.2-129.8,129.7-129.8c71.5,0,129.7,58.2,129.7,129.8C629.7,573.2,571.5,631.3,500,631.3z M500,404.5c-53.5,0-97,43.6-97,97.1c0,53.5,43.5,97,97,97c53.5,0,97.1-43.5,97.1-97C597.1,448.1,553.5,404.5,500,404.5z"/><path d="M500,990c-71.5,0-129.7-58.2-129.7-129.7c0-71.5,58.2-129.7,129.7-129.7c71.5,0,129.7,58.2,129.7,129.7C629.7,931.8,571.5,990,500,990z M500,763.2c-53.5,0-97,43.5-97,97c0,53.5,43.5,97.1,97,97.1c53.5,0,97.1-43.6,97.1-97.1C597.1,806.7,553.5,763.2,500,763.2z"/></g>
</svg>