<?xml version="1.0" encoding="utf-8"?>
<!-- Svg Vector Icons : http://www.onlinewebfonts.com/icon -->
<!DOCTYPE svg PUBLIC "-//W3C//DTD SVG 1.1//EN" "http://www.w3.org/Graphics/SVG/1.1/DTD/svg11.dtd">
<svg version="1.1" xmlns="http://www.w3.org/2000/svg" xmlns:xlink="http://www.w3.org/1999/xlink" x="0px" y="0px" viewBox="0 0 1000 1000" enable-background="new 0 0 1000 1000" xml:space="preserve">
<metadata> Svg Vector Icons : http://www.onlinewebfonts.com/icon </metadata>
<g><path d="M500,271.3c-71.9,0-130.7-58.8-130.7-130.7C369.3,68.8,428.1,10,500,10s130.7,58.8,130.7,130.7C630.7,212.5,571.9,271.3,500,271.3z M500,42.7c-53.9,0-98,44.1-98,98c0,53.9,44.1,98,98,98s98-44.1,98-98C598,86.8,553.9,42.7,500,42.7z"/><path d="M500,990c-71.9,0-130.7-58.8-130.7-130.7c0-71.9,58.8-130.7,130.7-130.7s130.7,58.8,130.7,130.7C630.7,931.2,571.9,990,500,990z M500,761.3c-53.9,0-98,44.1-98,98c0,53.9,44.1,98,98,98s98-44.1,98-98C598,805.4,553.9,761.3,500,761.3z"/><path d="M500,630.7c-71.9,0-130.7-58.8-130.7-130.7S428.1,369.3,500,369.3S630.7,428.1,630.7,500S571.9,630.7,500,630.7z M500,402c-53.9,0-98,44.1-98,98s44.1,98,98,98s98-44.1,98-98S553.9,402,500,402z"/></g>
</svg>